<?xml version="1.0"?>
<svg width="220" height="60" xmlns="http://www.w3.org/2000/svg" xmlns:svg="http://www.w3.org/2000/svg">
 <defs>
  <linearGradient gradientUnits="objectBoundingBox" id="gradient0" spreadMethod="pad" x1="0" x2="1.14" y1="0" y2="0.9">
   <stop offset="0.33" stop-color="#f59b14"/>
   <stop offset="0.6" stop-color="#96f06e"/>
  </linearGradient>
 </defs>
 <g class="layer">
  <title>Layer 1</title>
  <path d="m189.49,42.15c-186.97,25.97 -200.68,-31.93 -140.19,-41.54c-84.63,5.28 -72.17,88.7 140.19,41.54z" fill="url(#gradient0)" id="shape0" stroke-linecap="square" stroke-linejoin="bevel" stroke-width="0.48"/>
  <path d="m49.99,0.61c-66.4,5.54 -73.11,78.06 139.5,41.54" fill="none" id="shape1" stroke="#ffffff" stroke-linecap="square" stroke-linejoin="bevel" stroke-width="0.72"/>
  <circle cx="9.6" cy="9.6" fill="none" id="shape01" r="9.6" stroke="#82d322" stroke-linecap="square" stroke-linejoin="bevel" stroke-width="3.6" transform="matrix(0.999999992309078 0 0 0.999999992309078 39.7603706243929 14.5438647729803)"/>
  <text fill="#77b3fe" font-family="Magneto" font-size="36" font-weight="700" id="shape11" letter-spacing="0" stroke="#000000" stroke-linecap="square" stroke-linejoin="bevel" stroke-opacity="0" stroke-width="0" transform="matrix(0.999999992309078 0 0 0.999999992309078 62.0450579187491 41.0501148545698)" word-spacing="0">
   <tspan id="svg_1" x="0">M</tspan>
  </text>
  <text fill="#2a3c37" font-family="Berlin Sans FB" font-size="36" id="shape2" letter-spacing="0" stroke="#000000" stroke-linecap="square" stroke-linejoin="bevel" stroke-opacity="0" stroke-width="0" transform="matrix(0.999999992309078 0 0 0.999999992309078 106.266620112899 36.542302103792)" word-spacing="0">
   <tspan id="svg_2" x="0">m</tspan>
  </text>
  <text fill="#fb3b02" font-family="Vivaldi" font-size="48" font-style="italic" id="shape3" letter-spacing="0" stroke="#000000" stroke-linecap="square" stroke-linejoin="bevel" stroke-opacity="0" stroke-width="0" transform="matrix(0.999999992309078 0 0 0.999999992309078 139.900700505371 29.1241769210692)" word-spacing="0">
   <tspan id="svg_3" x="0">i</tspan>
  </text>
  <text fill="#000000" font-family="Corbel" font-size="36" id="shape4" letter-spacing="-4" stroke="#000000" stroke-linecap="square" stroke-linejoin="bevel" stroke-opacity="0" stroke-width="0" transform="matrix(0.999999992309078 0 0 0.999999992309078 151.727557263262 36.448552104513)" word-spacing="0">
   <tspan id="svg_4" x="0">TT</tspan>
  </text>
  <path d="m191.59,19.22c8.75,9.66 12.9,14.51 12.46,14.53" fill="none" id="shape011" stroke="#ff0000" stroke-linecap="square" stroke-linejoin="bevel" stroke-width="2.4"/>
  <path d="m211.88,18.45c-2.65,9.25 -1.98,15.86 -11.01,27.69c-9.04,11.82 -29.86,17.48 -45.01,5.45" fill="none" id="shape111" stroke="#ff0000" stroke-linecap="square" stroke-linejoin="bevel" stroke-width="2.4"/>
 </g>
</svg>